<svg xmlns="http://www.w3.org/2000/svg"  viewBox="0 0 64 64" width="64px" height="64px" baseProfile="basic"><path fill="#ffce29" d="M48.005,24.013c0-2.761,2.239-5,5-5l0,0c2.761,0,5,2.239,5,5v8h-10V24.013z"/><path fill="#ffce29" d="M5.433,35.881l9.672,12.922c2.455,3.279,6.312,5.21,10.408,5.21h21.492c6.075,0,11-4.925,11-11v-15	h-39v8.513l-1.647-2.221c-2.551-3.535-7.463-4.377-11.045-1.893L5.96,32.657C4.904,33.389,4.666,34.851,5.433,35.881z"/><path fill="#ffce29" d="M49.005,24.013v11c0,2.761-2.239,5-5,5l0,0c-2.761,0-5-2.239-5-5v-11c0-2.761,2.239-5,5-5l0,0	C46.766,19.013,49.005,21.252,49.005,24.013z"/><path fill="#ffce29" d="M39.005,24.097v11c0,2.761-2.239,5-5,5l0,0c-2.761,0-5-2.239-5-5v-11c0-2.761,2.239-5,5-5l0,0	C36.766,19.097,39.005,21.336,39.005,24.097z"/><path fill="#ffce29" d="M28.983,10.013v20h-10v-20c0-2.761,2.239-5,5-5l0,0C26.744,5.013,28.983,7.252,28.983,10.013z"/><ellipse cx="34.891" cy="61" opacity=".3" rx="23.092" ry="3"/><path fill="#fff" d="M23.983,5.013c-2.761,0-5,2.239-5,5v18c2.761,0,5-2.239,5-5l-0.006-13h0.006	c1.846,0,3.44-1.012,4.306-2.5C27.423,6.025,25.829,5.013,23.983,5.013z" opacity=".3"/><path fill="none" stroke="#fff" stroke-linecap="round" stroke-miterlimit="10" stroke-width="3" d="M22.784,13.524v-3.517	c0-0.551,0.449-1,1-1"/><path d="M58.005,43.013v-13h0c-2.761,0-5,2.239-5,5v8c0,3.309-2.691,6-6,6h-6.022c-2.761,0-5,2.239-5,5	h11.022C53.08,54.013,58.005,49.088,58.005,43.013z" opacity=".15"/></svg>